<svg width="114" height="120" viewBox="0 0 114 120" fill="none" xmlns="http://www.w3.org/2000/svg">
<path d="M113.378 109.845L85.8602 45.3081C85.3702 44.1605 84.6174 43.1955 83.6862 42.521C82.755 41.8466 81.6821 41.4894 80.5876 41.4894C79.4931 41.4894 78.4202 41.8466 77.489 42.521C76.5578 43.1955 75.8051 44.1605 75.315 45.3081L65.2317 68.9331C58.4386 68.2368 51.8976 65.5824 46.1905 61.206C53.1257 51.7485 57.4639 40.0557 58.6373 27.6585H68.7943C70.3582 27.6585 71.858 26.93 72.9639 25.6333C74.0697 24.3365 74.6909 22.5778 74.6909 20.7439C74.6909 18.91 74.0697 17.1513 72.9639 15.8545C71.858 14.5578 70.3582 13.8293 68.7943 13.8293H43.2421V6.91463C43.2421 5.08076 42.6209 3.32199 41.515 2.02525C40.4092 0.728504 38.9094 0 37.3455 0C35.7816 0 34.2817 0.728504 33.1759 2.02525C32.0701 3.32199 31.4488 5.08076 31.4488 6.91463V13.8293H5.89665C4.33276 13.8293 2.83293 14.5578 1.72709 15.8545C0.621253 17.1513 0 18.91 0 20.7439C0 22.5778 0.621253 24.3365 1.72709 25.6333C2.83293 26.93 4.33276 27.6585 5.89665 27.6585H46.7457C45.6396 36.6703 42.3806 45.1308 37.3455 52.0614C34.8884 48.6897 32.8381 44.938 31.2523 40.9116C30.9417 40.0647 30.4898 39.2993 29.9232 38.6602C29.3567 38.0212 28.6868 37.5214 27.9532 37.1903C27.2195 36.8592 26.4368 36.7035 25.651 36.7324C24.8653 36.7612 24.0924 36.974 23.3778 37.3582C22.6632 37.7424 22.0213 38.2903 21.4899 38.9696C20.9585 39.649 20.5483 40.446 20.2835 41.314C20.0186 42.1819 19.9045 43.1032 19.9477 44.0237C19.9909 44.9441 20.1906 45.8451 20.5351 46.6738C22.5978 51.9342 25.279 56.8297 28.5005 61.2175C21.7899 66.3973 13.9306 69.1541 5.89665 69.1463C4.33276 69.1463 2.83293 69.8748 1.72709 71.1716C0.621253 72.4683 0 74.2271 0 76.061C0 77.8948 0.621253 79.6536 1.72709 80.9503C2.83293 82.2471 4.33276 82.9756 5.89665 82.9756C17.2184 82.9864 28.2434 78.7301 37.3455 70.8346C43.9463 76.5309 51.579 80.3642 59.6496 82.0363L47.7924 109.845C47.4238 110.659 47.198 111.552 47.128 112.47C47.0581 113.389 47.1455 114.314 47.3852 115.193C47.6248 116.071 48.0118 116.884 48.5234 117.584C49.0351 118.284 49.6609 118.858 50.3643 119.27C51.0676 119.682 51.8341 119.926 52.6188 119.985C53.4035 120.045 54.1905 119.92 54.9334 119.618C55.6763 119.316 56.3602 118.843 56.9448 118.226C57.5294 117.61 58.003 116.862 58.3376 116.028L64.5733 101.415H96.597L102.828 116.028C103.174 116.84 103.653 117.564 104.238 118.159C104.823 118.754 105.502 119.209 106.237 119.496C106.972 119.783 107.747 119.898 108.52 119.834C109.292 119.77 110.046 119.528 110.739 119.122C111.432 118.716 112.05 118.154 112.557 117.468C113.065 116.782 113.452 115.986 113.697 115.124C113.942 114.263 114.04 113.353 113.985 112.447C113.93 111.541 113.724 110.657 113.378 109.845ZM70.4699 87.5853L80.5876 63.8624L90.7004 87.5853H70.4699Z" fill="#03816A"/>
</svg>
